<?xml version="1.0" encoding="UTF-8"?>
<svg width="205px" height="70px" viewBox="0 0 205 70" version="1.1" xmlns="http://www.w3.org/2000/svg" xmlns:xlink="http://www.w3.org/1999/xlink">
    <!-- Generator: Sketch 48.2 (47327) - http://www.bohemiancoding.com/sketch -->
    <title>logo-white</title>
    <desc>Created with Sketch.</desc>
    <defs>
        <polygon id="path-1" points="0.555517391 0.121315385 133.683935 0.121315385 133.683935 7 0.555517391 7"></polygon>
        <polygon id="path-3" points="0 70 205 70 205 0 0 0"></polygon>
    </defs>
    <g id="Symbols" stroke="none" stroke-width="1" fill="none" fill-rule="evenodd">
        <g id="logo-white">
            <g id="Page-1">
                <path d="M11.0990468,30.9310351 L38.8475404,30.9310351 C42.6152193,30.9310351 45.4757562,30.7778479 47.3946656,30.4552266 C49.3129905,30.1488523 51.0086214,29.5703388 52.4815582,28.7370936 C55.9242558,26.7479819 57.6543721,23.4150013 57.6543721,18.7219046 C57.6543721,14.0119805 55.8897704,10.6621725 52.344201,8.67306084 C50.7689769,7.80558068 49.0213256,7.22706716 47.0860502,6.92127315 C45.1677254,6.63230651 42.1873662,6.47911938 38.1449729,6.47911938 L11.0990468,6.47911938 L11.0990468,30.9310351 Z M11.0990468,37.3585118 L11.0990468,62.1162215 C11.0990468,63.4769178 11.3217408,64.4459425 11.7501784,65.024456 C12.1949819,65.6192167 13.0518571,66.0613704 14.3196349,66.4013994 L14.3196349,68 L0,68 L0,66.4013994 C1.26777779,66.0613704 2.12406846,65.6192167 2.568872,65.0575305 C2.99730959,64.4970049 3.22000361,63.5105726 3.22000361,62.1162215 L3.22000361,5.88377848 C3.22000361,4.49000768 2.99730959,3.50299514 2.568872,2.92506187 C2.12406846,2.33030122 1.26777779,1.90497483 0,1.59860056 L0,0 L37.5797626,0 C42.7350416,0 46.8119203,0.272719515 49.8098144,0.816998037 C52.7901735,1.37752368 55.393531,2.33030122 57.6029362,3.69041727 C59.8807279,5.08476832 61.713716,6.9891629 63.1182664,9.42100862 C64.727976,12.1754757 65.5334153,15.2705521 65.5334153,18.7219046 C65.5334153,23.9076372 63.803299,28.1249253 60.3430664,31.4068436 C56.8834183,34.6719345 52.1220915,36.5426743 46.0754519,37.0016554 L63.4777332,63.9190716 C64.5228169,65.567574 66.0296547,66.4013994 68,66.4013994 L68,68 L52.1559924,68 L52.1559924,66.4013994 C53.8001874,66.1292602 54.6056267,65.670279 54.6056267,65.0076286 C54.6056267,64.6670194 54.0228814,63.59587 52.8585599,61.7761925 L37.3056327,37.3585118 L11.0990468,37.3585118 Z" id="Fill-1" fill="#FEFEFE"></path>
                <path d="M194.56938,31.4854298 L194.56938,51.4600458 C194.56938,51.9483874 194.649584,52.2968726 194.802437,52.5043455 C194.962845,52.7175976 195.269133,52.8765254 195.723042,52.9990442 L195.723042,53.5729178 L190.591133,53.5729178 L190.591133,52.9990442 C191.045623,52.8765254 191.353073,52.7175976 191.511738,52.5164818 C191.665172,52.315366 191.745376,51.9611016 191.745376,51.4600458 L191.745376,31.4854298 L183.439006,31.4854298 C182.935114,31.4854298 182.579426,31.5588255 182.370779,31.711974 C182.155738,31.8581876 182.002304,32.1633288 181.891878,32.6152615 L181.314175,32.6152615 L181.314175,28 L181.891878,28 C182.002304,28.4634911 182.155738,28.7749894 182.370779,28.9275601 C182.579426,29.0807086 182.935114,29.1598835 183.439006,29.1598835 L202.876331,29.1598835 C203.379061,29.1598835 203.73533,29.0807086 203.944559,28.9275601 C204.159018,28.7749894 204.312452,28.4634911 204.422878,28 L205,28 L205,32.6152615 L204.422878,32.6152615 C204.312452,32.1633288 204.159018,31.8581876 203.944559,31.711974 C203.73533,31.5588255 203.379061,31.4854298 202.876331,31.4854298 L194.56938,31.4854298 Z M158.869772,40.2640201 L168.815098,40.2640201 C170.165785,40.2640201 171.190423,40.2096957 171.878552,40.093534 C172.566681,39.9831514 173.174025,39.7756785 173.702327,39.4768944 C174.936194,38.7625864 175.555742,37.5657161 175.555742,35.881082 C175.555742,34.1906688 174.923407,32.9874414 173.652926,32.2731334 C173.088009,31.9616351 172.462067,31.75474 171.768126,31.6437796 C171.080578,31.54091 170.01235,31.4854298 168.564024,31.4854298 L158.869772,31.4854298 L158.869772,40.2640201 Z M158.869772,42.5722288 L158.869772,51.4600458 C158.869772,51.9483874 158.949395,52.2968726 159.102829,52.5043455 C159.262656,52.7175976 159.568944,52.8765254 160.024016,52.9990442 L160.024016,53.5729178 L154.890944,53.5729178 L154.890944,52.9990442 C155.345435,52.8765254 155.652303,52.7175976 155.81213,52.5164818 C155.965564,52.315366 156.045769,51.9611016 156.045769,51.4600458 L156.045769,31.2721776 C156.045769,30.7716997 155.965564,30.4174354 155.81213,30.2099624 C155.652303,29.9967103 155.345435,29.8435618 154.890944,29.7337571 L154.890944,29.1598835 L168.360608,29.1598835 C170.208793,29.1598835 171.669905,29.2575518 172.743944,29.4523106 C173.812172,29.6540043 174.746144,29.9967103 175.537725,30.4850519 C176.354298,30.9849519 177.011043,31.6686301 177.514353,32.5418658 C178.090894,33.5306853 178.380327,34.6414457 178.380327,35.881082 C178.380327,37.7431372 177.760197,39.2567072 176.519937,40.4350841 C175.279677,41.6076819 173.572721,42.2792238 171.406626,42.4439307 L177.643378,52.107893 C178.017664,52.6996821 178.558171,52.9990442 179.263736,52.9990442 L179.263736,53.5729178 L173.585508,53.5729178 L173.585508,52.9990442 C174.174834,52.9013759 174.463686,52.736091 174.463686,52.4979884 C174.463686,52.3760475 174.254458,51.9911534 173.836582,51.3386828 L168.262387,42.5722288 L158.869772,42.5722288 Z M135.380389,31.1808664 C131.696806,31.1808664 128.780974,32.2060948 126.638707,34.2577074 C124.667891,36.1434573 123.685099,38.5059904 123.685099,41.356865 C123.685099,44.2204539 124.667891,46.5887661 126.638707,48.4750939 C128.768188,50.5261286 131.696806,51.5519349 135.417585,51.5519349 C139.144177,51.5519349 142.084418,50.5261286 144.227266,48.4750939 C146.185877,46.5887661 147.161695,44.2689991 147.161695,41.4972993 C147.161695,38.5059904 146.185877,36.0949121 144.227266,34.2577074 C143.055006,33.1585054 141.796148,32.3887172 140.451273,31.9500767 C138.965751,31.4490209 137.271582,31.1924248 135.380389,31.1808664 Z M135.380389,28.7322234 C139.708512,28.7322234 143.195072,29.8614772 145.848206,32.1142057 C147.333728,33.3659784 148.450775,34.8980417 149.194118,36.7051946 C149.802042,38.2008491 150.10833,39.800529 150.10833,41.5157927 C150.10833,43.841339 149.445773,46.0212496 148.113104,48.0474338 C146.652573,50.288026 144.620151,51.8998422 142.017,52.8886617 C140.070594,53.6272422 137.873114,54 135.417585,54 C131.10806,54 127.638936,52.8707462 124.99917,50.6174398 C123.525853,49.3541088 122.408224,47.8220454 121.652677,46.0270288 C121.044752,44.5435106 120.738464,42.9929538 120.738464,41.356865 C120.738464,38.9394296 121.395791,36.7051946 122.715673,34.6662962 C124.158188,32.462113 126.19584,30.8566538 128.830375,29.8435618 C130.677979,29.1356109 132.863254,28.7692103 135.380389,28.7322234 Z M98.7229798,40.2640201 L107.931938,40.2640201 C109.301223,40.2640201 110.313656,40.2096957 110.983187,40.1056703 C111.645744,39.9958657 112.242045,39.7878148 112.769766,39.4768944 C113.990846,38.7625864 114.604583,37.5657161 114.604583,35.881082 C114.604583,34.1906688 113.990846,32.9874414 112.769766,32.2731334 C112.242045,31.9616351 111.652137,31.75474 110.988999,31.6437796 C110.332835,31.54091 109.313428,31.4854298 107.931938,31.4854298 L98.7229798,31.4854298 L98.7229798,40.2640201 Z M98.7229798,42.5907222 L98.7229798,51.6923692 C98.7229798,52.0645491 98.8084148,52.3459957 98.9746352,52.5349752 C99.1466675,52.7239547 99.447724,52.8765254 99.8766424,52.9990442 L99.8766424,53.5729178 L94.744733,53.5729178 L94.744733,52.9990442 C95.1806256,52.8765254 95.475289,52.7239547 95.6467401,52.5349752 C95.8129605,52.3459957 95.8989767,52.0645491 95.8989767,51.6923692 L95.8989767,31.0219387 C95.8989767,30.6613172 95.8129605,30.3868057 95.6467401,30.1972482 C95.475289,30.0082687 95.1806256,29.8556981 94.744733,29.7337571 L94.744733,29.1598835 L107.661685,29.1598835 C109.473255,29.1598835 110.878573,29.2575518 111.885194,29.4471093 C112.89879,29.6360888 113.795566,29.9839961 114.586566,30.4850519 C115.415925,30.9849519 116.078481,31.6686301 116.581792,32.5418658 C117.146709,33.518549 117.429167,34.6113939 117.429167,35.8319589 C117.429167,37.4986775 116.914233,38.9272933 115.882039,40.1241637 C115.089877,41.0390095 114.089067,41.6810776 112.867987,42.0463224 C111.652137,42.4069439 109.914959,42.5907222 107.661685,42.5907222 L98.7229798,42.5907222 Z M83.964236,44.3972971 L78.4388609,32.3280357 L72.9134857,44.3972971 L83.964236,44.3972971 Z M85.0016605,46.7228434 L71.8696681,46.7228434 L69.708803,51.3565983 C69.5059676,51.7963947 69.4077464,52.107893 69.4077464,52.2841583 C69.4077464,52.6390006 69.7576229,52.8765254 70.4701621,52.9990442 L70.4701621,53.5729178 L65,53.5729178 L65,52.9990442 C65.4911057,52.9135122 65.8653922,52.736091 66.1234406,52.4615795 C66.3809079,52.18649 66.7191606,51.5947009 67.1428482,50.67292 L76.1303734,31.3762031 C76.3454138,30.9121341 76.4558399,30.6006357 76.4558399,30.4295717 C76.4558399,30.1180733 76.1611765,29.8857498 75.5718496,29.7337571 L75.5718496,29.1598835 L81.5453225,29.1598835 L81.5453225,29.7337571 C80.9559956,29.9227367 80.6613322,30.1729756 80.6613322,30.4850519 C80.6613322,30.6191291 80.7717583,30.9121341 80.9867987,31.3762031 L89.6000374,49.9771055 C90.2387654,51.3508191 90.6560599,52.150659 90.8583141,52.3881838 C91.0611495,52.6262864 91.5092472,52.8337594 92.1909832,52.9990442 L92.1909832,53.5729178 L86.3709446,53.5729178 L86.3709446,52.9990442 C87.0643045,52.9013759 87.4083691,52.6390006 87.4083691,52.2107626 C87.4083691,52.0217831 87.2793449,51.6496032 87.0154846,51.1063593 L85.0016605,46.7228434 Z" id="Fill-3" fill="#FEFEFE"></path>
                <g id="Group-7" transform="translate(71.000000, 63.000000)">
                    <mask id="mask-2" fill="white">
                        <use xlink:href="#path-1"></use>
                    </mask>
                    <g id="Clip-6"></g>
                    <path d="M129.945335,3.17977692 L132.775648,3.17977692 C132.738361,2.85293077 132.62883,2.60685385 132.451717,2.44316154 C132.178474,2.18846923 131.8225,2.06085385 131.388457,2.06085385 C130.992865,2.06085385 130.660196,2.16208462 130.392196,2.36508462 C130.123613,2.56808462 129.974465,2.84054615 129.945335,3.17977692 Z M132.766326,4.2497 L133.654222,4.3337 C133.513813,4.73377692 133.255135,5.04339231 132.876439,5.26362308 C132.497743,5.48223846 132.013596,5.59262308 131.424578,5.59262308 C130.684083,5.59262308 130.095065,5.41762308 129.662187,5.06708462 C129.226978,4.71546923 129.010248,4.22277692 129.010248,3.58954615 C129.010248,2.93154615 129.229309,2.42323846 129.668596,2.06085385 C130.108465,1.69793077 130.677091,1.51646923 131.37797,1.51646923 C132.056126,1.51646923 132.609604,1.6947 133.038987,2.04900769 C133.468952,2.40439231 133.683935,2.90408462 133.683935,3.54808462 C133.683935,3.58793077 133.68277,3.64608462 133.678691,3.72416154 L129.898143,3.72416154 C129.929022,4.15331538 130.087491,4.48123846 130.370057,4.70793077 C130.654952,4.93677692 131.006265,5.05039231 131.429822,5.05039231 C131.743848,5.05039231 132.013596,4.98631538 132.237317,4.8587 C132.459874,4.73216154 132.635822,4.52916154 132.766326,4.2497 Z M123.170761,5.50539231 L121.620439,1.60585385 L122.507752,1.60585385 L123.314665,3.85716154 L123.614709,4.69446923 C123.627526,4.65193077 123.7155,4.38377692 123.8763,3.88946923 L124.683796,1.60585385 L125.566448,1.60585385 L126.32617,3.86631538 L126.580187,4.61316154 L126.870909,3.85985385 L127.738996,1.60585385 L128.575039,1.60585385 L126.989761,5.50539231 L126.097787,5.50539231 L125.291457,3.17008462 L125.093952,2.50454615 L124.069143,5.50539231 L123.170761,5.50539231 Z M117.359239,3.55508462 C117.359239,4.05531538 117.501396,4.42900769 117.785126,4.67723846 C118.068857,4.92654615 118.426578,5.05039231 118.854213,5.05039231 C119.280683,5.05039231 119.636074,4.92493077 119.919804,4.67508462 C120.201204,4.42577692 120.343943,4.04454615 120.343943,3.53354615 C120.343943,3.05108462 120.201204,2.68493077 119.916891,2.4367 C119.632578,2.18846923 119.277187,2.06462308 118.854213,2.06462308 C118.426578,2.06462308 118.068857,2.18846923 117.785126,2.43562308 C117.501396,2.68223846 117.359239,3.05646923 117.359239,3.55508462 Z M116.476587,3.55508462 C116.476587,2.83246923 116.737596,2.29777692 117.260778,1.95046923 C117.695404,1.66239231 118.226743,1.51646923 118.854213,1.51646923 C119.551013,1.51646923 120.122552,1.69254615 120.56417,2.0447 C121.006952,2.39577692 121.226596,2.88093077 121.226596,3.49962308 C121.226596,4.00254615 121.1293,4.39777692 120.933543,4.68423846 C120.73837,4.97285385 120.452309,5.19577692 120.079439,5.35462308 C119.705987,5.51400769 119.297578,5.59262308 118.854213,5.59262308 C118.145178,5.59262308 117.571891,5.4187 117.13377,5.06762308 C116.695648,4.71816154 116.476587,4.21362308 116.476587,3.55508462 Z M111.913013,5.50539231 L111.913013,0.121315385 L112.772361,0.121315385 L112.772361,3.19108462 L114.80683,1.60585385 L115.917283,1.60585385 L113.980109,3.05216154 L116.114204,5.50539231 L115.053857,5.50539231 L113.378857,3.51093077 L112.772361,3.95946923 L112.772361,5.50539231 L111.913013,5.50539231 Z M106.470865,5.50539231 L106.470865,1.60585385 L107.242822,1.60585385 L107.242822,2.15993077 C107.616857,1.73131538 108.154022,1.51646923 108.856648,1.51646923 C109.1631,1.51646923 109.443917,1.55954615 109.6991,1.64300769 C109.956613,1.72862308 110.146543,1.83900769 110.274717,1.97685385 C110.402891,2.11416154 110.490865,2.27623846 110.542717,2.46416154 C110.574178,2.58746923 110.590491,2.80177692 110.590491,3.10762308 L110.590491,5.50539231 L109.729396,5.50539231 L109.729396,3.13239231 C109.729396,2.86423846 109.697352,2.66231538 109.630935,2.52823846 C109.564517,2.39577692 109.4445,2.28916154 109.274961,2.21000769 C109.104839,2.12977692 108.905004,2.08993077 108.674874,2.08993077 C108.308996,2.08993077 107.994387,2.18039231 107.72697,2.35754615 C107.4613,2.53685385 107.32963,2.87608462 107.32963,3.37523846 L107.32963,5.50539231 L106.470865,5.50539231 Z M104.355413,5.50539231 L104.355413,4.93300769 C103.959822,5.37346923 103.423239,5.59262308 102.7445,5.59262308 C102.447952,5.59262308 102.166552,5.54900769 101.907291,5.46123846 C101.649196,5.37346923 101.456352,5.26200769 101.331674,5.12900769 C101.204083,4.99493077 101.116109,4.83231538 101.066004,4.63900769 C101.031048,4.50977692 101.01357,4.30354615 101.01357,4.02085385 L101.01357,1.60585385 L101.872335,1.60585385 L101.872335,3.76831538 C101.872335,4.11346923 101.890396,4.34608462 101.924187,4.4667 C101.979535,4.64062308 102.093143,4.77631538 102.267926,4.87646923 C102.443874,4.97500769 102.661187,5.02454615 102.917535,5.02454615 C103.17563,5.02454615 103.41683,4.97393077 103.643465,4.8727 C103.869517,4.77093077 104.029735,4.63146923 104.12237,4.45754615 C104.216752,4.28146923 104.264526,4.02731538 104.264526,3.69562308 L104.264526,1.60585385 L105.123291,1.60585385 L105.123291,5.50539231 L104.355413,5.50539231 Z M95.5941435,5.50539231 L95.5941435,0.121315385 L96.4534913,0.121315385 L96.4534913,2.05331538 C96.8543261,1.69577692 97.360613,1.51646923 97.9723522,1.51646923 C98.3469696,1.51646923 98.6732304,1.57462308 98.9499696,1.68823846 C99.2267087,1.80131538 99.4253783,1.95962308 99.544813,2.15993077 C99.6636652,2.36077692 99.7242565,2.65208462 99.7242565,3.03385385 L99.7242565,5.50539231 L98.8631609,5.50539231 L98.8631609,3.03385385 C98.8631609,2.70377692 98.7705261,2.46308462 98.5846739,2.31231538 C98.3994043,2.16208462 98.1349,2.08616154 97.7946565,2.08616154 C97.5406391,2.08616154 97.3006043,2.13677692 97.0763,2.23854615 C96.8508304,2.34031538 96.6911957,2.47816154 96.596813,2.65208462 C96.5012652,2.82546923 96.4534913,3.06616154 96.4534913,3.37146923 L96.4534913,5.50539231 L95.5941435,5.50539231 Z M94.0141087,4.07685385 L94.8577261,4.16193077 C94.7668391,4.60939231 94.5303,4.96046923 94.1486913,5.21300769 C93.769413,5.46662308 93.3015783,5.59262308 92.7475174,5.59262308 C92.0547957,5.59262308 91.4960739,5.4187 91.076013,5.07085385 C90.6536217,4.72246923 90.4415522,4.22223846 90.4415522,3.57016154 C90.4415522,3.14854615 90.5336043,2.78077692 90.714213,2.46416154 C90.8965696,2.14862308 91.1715609,1.9117 91.5438478,1.75393077 C91.9132217,1.59562308 92.3175522,1.51646923 92.7527609,1.51646923 C93.3027435,1.51646923 93.7554304,1.62416154 94.1032478,1.83900769 C94.4545609,2.05331538 94.6788652,2.35700769 94.7784913,2.75116154 L93.9418652,2.85077692 C93.8620478,2.58854615 93.7216391,2.39146923 93.5200565,2.25846923 C93.3178913,2.12762308 93.0737783,2.06085385 92.7877174,2.06085385 C92.3536739,2.06085385 92.0011957,2.18039231 91.7302826,2.42000769 C91.4605348,2.65746923 91.324787,3.03493077 91.324787,3.55077692 C91.324787,4.07523846 91.4552913,4.45646923 91.7186304,4.69446923 C91.9784739,4.93139231 92.3193,5.05039231 92.7393609,5.05039231 C93.0772739,5.05039231 93.3569261,4.97016154 93.5835609,4.81077692 C93.8107783,4.65193077 93.9541,4.40693077 94.0141087,4.07685385 Z M88.5043783,3.54808462 C88.1909348,3.64608462 87.7236826,3.72954615 87.1008739,3.79793077 C86.7472304,3.83723846 86.4972913,3.88031538 86.3516391,3.92985385 C86.2042391,3.97885385 86.091213,4.04993077 86.0125609,4.14523846 C85.9327435,4.23946923 85.8919609,4.34393077 85.8919609,4.45862308 C85.8919609,4.63523846 85.9799348,4.78223846 86.152387,4.89962308 C86.3254217,5.01700769 86.5794391,5.0757 86.9132739,5.0757 C87.2441957,5.0757 87.5395783,5.02023846 87.7970913,4.90823846 C88.0546043,4.79731538 88.2445348,4.64439231 88.3651348,4.45108462 C88.4583522,4.30246923 88.5043783,4.08116154 88.5043783,3.79093077 L88.5043783,3.54808462 Z M88.5754565,5.02454615 C88.2556043,5.23239231 87.9497348,5.37885385 87.6566826,5.46554615 C87.3618826,5.55062308 87.0455261,5.59262308 86.7081957,5.59262308 C86.1506391,5.59262308 85.7241696,5.4887 85.4235435,5.27977692 C85.126413,5.07085385 84.9755174,4.80216154 84.9755174,4.47746923 C84.9755174,4.28577692 85.0314478,4.11131538 85.1450565,3.95354615 C85.2575,3.79577692 85.4066478,3.66923846 85.5884217,3.57339231 C85.7736913,3.47862308 85.978187,3.40539231 86.2083174,3.35693077 C86.3755261,3.32300769 86.6295435,3.28908462 86.9703696,3.25839231 C87.6654217,3.19323846 88.1763696,3.11893077 88.5043783,3.03008462 C88.5078739,2.93962308 88.5090391,2.88200769 88.5090391,2.85777692 C88.5090391,2.58854615 88.4274739,2.39793077 88.2637609,2.28916154 C88.0458652,2.13785385 87.7184391,2.06462308 87.2867261,2.06462308 C86.8829783,2.06462308 86.5841,2.11793077 86.3900913,2.22723846 C86.1978304,2.33708462 86.0568391,2.52931538 85.9636217,2.80716154 L85.1240826,2.71777692 C85.2004043,2.44154615 85.3262478,2.21700769 85.5004478,2.04793077 C85.675813,1.87777692 85.9292478,1.74639231 86.2601696,1.65485385 C86.5910913,1.56277692 86.9738652,1.51646923 87.4102391,1.51646923 C87.8442826,1.51646923 88.1944304,1.55685385 88.4647609,1.63439231 C88.7356739,1.71354615 88.9337609,1.81100769 89.0631,1.93054615 C89.1906913,2.04900769 89.2780826,2.1987 89.3299348,2.3807 C89.3579,2.49377692 89.3718826,2.69677692 89.3718826,2.9897 L89.3718826,3.87062308 C89.3718826,4.48662308 89.3916913,4.87431538 89.4283957,5.03639231 C89.4645174,5.19954615 89.5373435,5.3557 89.6445435,5.50539231 L88.7467435,5.50539231 C88.6587696,5.36808462 88.5999261,5.20816154 88.5754565,5.02454615 Z M82.0013,5.50539231 L82.0013,1.60585385 L82.7744217,1.60585385 L82.7744217,2.19654615 C82.9719261,1.92031538 83.1542826,1.73723846 83.3220739,1.64946923 C83.4881174,1.5617 83.6722217,1.51646923 83.8720565,1.51646923 C84.1633609,1.51646923 84.4558304,1.58862308 84.7558739,1.7297 L84.4599087,2.34354615 C84.2507522,2.2477 84.041013,2.20031538 83.8306913,2.20031538 C83.6407609,2.20031538 83.4729696,2.24393077 83.3244043,2.33008462 C83.1735087,2.41785385 83.0674739,2.53846923 83.0039696,2.69246923 C82.9078391,2.92616154 82.8612304,3.18408462 82.8612304,3.46354615 L82.8612304,5.50539231 L82.0013,5.50539231 Z M75.7027174,3.88946923 L78.3448478,3.88946923 L78.3448478,3.22500769 L75.7027174,3.22500769 L75.7027174,3.88946923 Z M68.4463261,3.55508462 C68.4463261,4.05531538 68.5890652,4.42900769 68.8727957,4.67723846 C69.1559435,4.92654615 69.5125,5.05039231 69.9413,5.05039231 C70.3683522,5.05039231 70.7237435,4.92493077 71.0068913,4.67508462 C71.2882913,4.42577692 71.4304478,4.04454615 71.4304478,3.53354615 C71.4304478,3.05108462 71.2882913,2.68493077 71.0039783,2.4367 C70.7190826,2.18846923 70.3642739,2.06462308 69.9413,2.06462308 C69.5125,2.06462308 69.1559435,2.18846923 68.8727957,2.43562308 C68.5890652,2.68223846 68.4463261,3.05646923 68.4463261,3.55508462 Z M67.5630913,3.55508462 C67.5630913,2.83246923 67.8252652,2.29777692 68.3478652,1.95046923 C68.7824913,1.66239231 69.314413,1.51646923 69.9413,1.51646923 C70.6381,1.51646923 71.2090565,1.69254615 71.6500913,2.0447 C72.0940391,2.39577692 72.3142652,2.88093077 72.3142652,3.49962308 C72.3142652,4.00254615 72.216387,4.39777692 72.021213,4.68423846 C71.8254565,4.97285385 71.5399783,5.19577692 71.1665261,5.35462308 C70.7919087,5.51400769 70.3846652,5.59262308 69.9413,5.59262308 C69.2328478,5.59262308 68.6589783,5.4187 68.2202739,5.06762308 C67.7827348,4.71816154 67.5630913,4.21362308 67.5630913,3.55508462 Z M61.7591435,5.50539231 L60.2082391,1.60585385 L61.0961348,1.60585385 L61.9024652,3.85716154 L62.2025087,4.69446923 C62.2153261,4.65193077 62.3027174,4.38377692 62.4652652,3.88946923 L63.2715957,1.60585385 L64.1542478,1.60585385 L64.9145522,3.86631538 L65.167987,4.61316154 L65.4575435,3.85985385 L66.3267957,1.60585385 L67.1628391,1.60585385 L65.5769783,5.50539231 L64.6861696,5.50539231 L63.8786739,3.17008462 L63.6823348,2.50454615 L62.6569435,5.50539231 L61.7591435,5.50539231 Z M55.9476217,3.55508462 C55.9476217,4.05531538 56.0897783,4.42900769 56.3729261,4.67723846 C56.6560739,4.92654615 57.0137957,5.05039231 57.442013,5.05039231 C57.8684826,5.05039231 58.2238739,4.92493077 58.508187,4.67508462 C58.789587,4.42577692 58.9311609,4.04454615 58.9311609,3.53354615 C58.9311609,3.05108462 58.789587,2.68493077 58.5046913,2.4367 C58.2203783,2.18846923 57.8655696,2.06462308 57.442013,2.06462308 C57.0137957,2.06462308 56.6560739,2.18846923 56.3729261,2.43562308 C56.0897783,2.68223846 55.9476217,3.05646923 55.9476217,3.55508462 Z M55.0649696,3.55508462 C55.0649696,2.83246923 55.3253957,2.29777692 55.8479957,1.95046923 C56.2832043,1.66239231 56.8151261,1.51646923 57.442013,1.51646923 C58.1399783,1.51646923 58.7097696,1.69254615 59.151387,2.0447 C59.5947522,2.39577692 59.8149783,2.88093077 59.8149783,3.49962308 C59.8149783,4.00254615 59.7171,4.39777692 59.5213435,4.68423846 C59.3261696,4.97285385 59.0401087,5.19577692 58.6672391,5.35462308 C58.2926217,5.51400769 57.8847957,5.59262308 57.442013,5.59262308 C56.7335609,5.59262308 56.1591087,5.4187 55.7221522,5.06762308 C55.2834478,4.71816154 55.0649696,4.21362308 55.0649696,3.55508462 Z M50.5002304,5.50539231 L50.5002304,0.121315385 L51.3601609,0.121315385 L51.3601609,3.19108462 L53.3940478,1.60585385 L54.5062478,1.60585385 L52.5679087,3.05216154 L54.7031696,5.50539231 L53.6416565,5.50539231 L51.9666565,3.51093077 L51.3601609,3.95946923 L51.3601609,5.50539231 L50.5002304,5.50539231 Z M49.6554478,4.91416154 L49.7795435,5.49839231 C49.5383435,5.53716154 49.321613,5.55654615 49.1311,5.55654615 C48.8182391,5.55654615 48.5770391,5.51939231 48.4040043,5.44239231 C48.2333,5.36754615 48.1127,5.26739231 48.0422043,5.14300769 C47.9722913,5.02023846 47.9361696,4.75962308 47.9361696,4.36331538 L47.9361696,2.11954615 L47.3063696,2.11954615 L47.3063696,1.60585385 L47.9361696,1.60585385 L47.9361696,0.639315385 L48.7920217,0.243546154 L48.7920217,1.60585385 L49.6554478,1.60585385 L49.6554478,2.11954615 L48.7920217,2.11954615 L48.7920217,4.39993077 C48.7920217,4.58946923 48.8071696,4.70954615 48.8363,4.76339231 C48.8671783,4.81777692 48.9161174,4.85977692 48.9842826,4.89262308 C49.0530304,4.92385385 49.1503261,4.94054615 49.2779174,4.94054615 C49.3734652,4.94054615 49.4993087,4.93139231 49.6554478,4.91416154 Z M45.5783522,3.54808462 C45.2649087,3.64608462 44.7976565,3.72954615 44.1748478,3.79793077 C43.821787,3.83723846 43.5706826,3.88031538 43.4261957,3.92985385 C43.2787957,3.97885385 43.1646043,4.04993077 43.0871174,4.14523846 C43.0061348,4.23946923 42.9665174,4.34393077 42.9665174,4.45862308 C42.9665174,4.63523846 43.0539087,4.78223846 43.2269435,4.89962308 C43.3993957,5.01700769 43.6539957,5.0757 43.9878304,5.0757 C44.3181696,5.0757 44.6141348,5.02023846 44.8716478,4.90823846 C45.1285783,4.79731538 45.3196739,4.64439231 45.4396913,4.45108462 C45.5323261,4.30246923 45.5783522,4.08116154 45.5783522,3.79093077 L45.5783522,3.54808462 Z M45.6505957,5.02454615 C45.3313261,5.23239231 45.0242913,5.37885385 44.7312391,5.46554615 C44.4352739,5.55062308 44.1200826,5.59262308 43.7821696,5.59262308 C43.2257783,5.59262308 42.7993087,5.4887 42.4981,5.27977692 C42.200387,5.07085385 42.0500739,4.80216154 42.0500739,4.47746923 C42.0500739,4.28577692 42.1054217,4.11131538 42.2207783,3.95354615 C42.3320565,3.79577692 42.4806217,3.66923846 42.6635609,3.57339231 C42.8470826,3.47862308 43.0521609,3.40539231 43.2822913,3.35693077 C43.4500826,3.32300769 43.7046826,3.28908462 44.0449261,3.25839231 C44.738813,3.19323846 45.2509261,3.11893077 45.5783522,3.03008462 C45.5818478,2.93962308 45.583013,2.88200769 45.583013,2.85777692 C45.583013,2.58854615 45.5020304,2.39793077 45.3383174,2.28916154 C45.1204217,2.13785385 44.7929957,2.06462308 44.3612826,2.06462308 C43.9569522,2.06462308 43.6586565,2.11793077 43.4646478,2.22723846 C43.272387,2.33708462 43.130813,2.52931538 43.0375957,2.80716154 L42.1992217,2.71777692 C42.2749609,2.44154615 42.4008043,2.21700769 42.5750043,2.04793077 C42.7492043,1.87777692 43.0032217,1.74639231 43.3347261,1.65485385 C43.6650652,1.56277692 44.0478391,1.51646923 44.484213,1.51646923 C44.9188391,1.51646923 45.2684043,1.55685385 45.5387348,1.63439231 C45.8096478,1.71354615 46.0089,1.81100769 46.1370739,1.93054615 C46.2646652,2.04900769 46.3526391,2.1987 46.4044913,2.3807 C46.4330391,2.49377692 46.4470217,2.69677692 46.4470217,2.9897 L46.4470217,3.87062308 C46.4470217,4.48662308 46.4650826,4.87431538 46.501787,5.03639231 C46.5379087,5.19954615 46.6119,5.3557 46.7196826,5.50539231 L45.8207174,5.50539231 C45.7327435,5.36808462 45.6744826,5.20816154 45.6505957,5.02454615 Z M37.476013,3.55831538 C37.476013,4.05908462 37.6135087,4.43223846 37.8867522,4.67939231 C38.1611609,4.92654615 38.4833435,5.05039231 38.856213,5.05039231 C39.231413,5.05039231 39.5506826,4.93139231 39.8128565,4.69500769 C40.075613,4.4597 40.2072826,4.09893077 40.2072826,3.61377692 C40.2072826,3.07962308 40.0732826,2.6887 39.8058652,2.43885385 C39.5384478,2.18846923 39.2104391,2.06462308 38.8165957,2.06462308 C38.4361522,2.06462308 38.1163,2.1847 37.8605348,2.42431538 C37.6047696,2.66339231 37.476013,3.04193077 37.476013,3.55831538 Z M40.1927174,5.50539231 L40.1927174,5.0127 C39.8717,5.40039231 39.3986217,5.59262308 38.7752304,5.59262308 C38.3709,5.59262308 37.9991957,5.50754615 37.6607,5.33685385 C37.3216217,5.16562308 37.0588652,4.92654615 36.8712652,4.61800769 C36.685413,4.31108462 36.5933609,3.95839231 36.5933609,3.55831538 C36.5933609,3.17008462 36.6772565,2.81685385 36.8456304,2.4997 C37.014587,2.18200769 37.2674391,1.93916154 37.6047696,1.77116154 C37.9415174,1.60208462 38.3196304,1.51646923 38.7367783,1.51646923 C39.0414826,1.51646923 39.3135609,1.56708462 39.5518478,1.66616154 C39.7918826,1.7647 39.9858913,1.89393077 40.1362043,2.05331538 L40.1362043,0.121315385 L40.9897261,0.121315385 L40.9897261,5.50539231 L40.1927174,5.50539231 Z M32.0280391,3.55508462 C32.0280391,4.05531538 32.169613,4.42900769 32.4539261,4.67723846 C32.7370739,4.92654615 33.094213,5.05039231 33.523013,5.05039231 C33.9494826,5.05039231 34.3048739,4.92493077 34.5880217,4.67508462 C34.870587,4.42577692 35.0115783,4.04454615 35.0115783,3.53354615 C35.0115783,3.05108462 34.870587,2.68493077 34.5856913,2.4367 C34.300213,2.18846923 33.9465696,2.06462308 33.523013,2.06462308 C33.094213,2.06462308 32.7370739,2.18846923 32.4539261,2.43562308 C32.169613,2.68223846 32.0280391,3.05646923 32.0280391,3.55508462 Z M31.1448043,3.55508462 C31.1448043,2.83246923 31.4063957,2.29777692 31.928413,1.95046923 C32.3636217,1.66239231 32.8955435,1.51646923 33.523013,1.51646923 C34.219813,1.51646923 34.7907696,1.69254615 35.232387,2.0447 C35.6757522,2.39577692 35.8953957,2.88093077 35.8953957,3.49962308 C35.8953957,4.00254615 35.7975174,4.39777692 35.6011783,4.68423846 C35.4060043,4.97285385 35.1211087,5.19577692 34.7482391,5.35462308 C34.3730391,5.51400769 33.965213,5.59262308 33.523013,5.59262308 C32.8133957,5.59262308 32.2401087,5.4187 31.8014043,5.06762308 C31.3632826,4.71816154 31.1448043,4.21362308 31.1448043,3.55508462 Z M26.8055348,3.5777 C26.8055348,4.07900769 26.9366217,4.44946923 27.2011261,4.69123846 C27.4650478,4.93031538 27.7866478,5.05039231 28.1612652,5.05039231 C28.5422913,5.05039231 28.8708826,4.92654615 29.1423783,4.67723846 C29.4144565,4.42900769 29.550787,4.04346923 29.550787,3.52277692 C29.550787,3.0247 29.4173696,2.6537 29.1517,2.40546923 C28.8860304,2.15831538 28.5690913,2.03446923 28.1997174,2.03446923 C27.8332565,2.03446923 27.5093261,2.16639231 27.2279261,2.42916154 C26.9459435,2.69246923 26.8055348,3.07639231 26.8055348,3.5777 Z M26.0283348,7.00016154 L26.0283348,1.60585385 L26.8101957,1.60585385 L26.8101957,2.11308462 C26.9943,1.91385385 27.2028739,1.7647 27.4359174,1.66616154 C27.667213,1.56708462 27.9491957,1.51646923 28.2801174,1.51646923 C28.7135783,1.51646923 29.0946043,1.60262308 29.4255261,1.77385385 C29.757613,1.94508462 30.0069696,2.18739231 30.1759261,2.4997 C30.3443,2.81146923 30.4293609,3.15339231 30.4293609,3.52600769 C30.4293609,3.92500769 30.3361435,4.2847 30.1491261,4.60400769 C29.9632739,4.92385385 29.6929435,5.16777692 29.3375522,5.33900769 C28.9827435,5.50754615 28.6087087,5.59262308 28.2183609,5.59262308 C27.9317174,5.59262308 27.6753696,5.54685385 27.446987,5.4537 C27.2186043,5.36162308 27.0333348,5.2437 26.8865174,5.10154615 L26.8865174,7.00016154 L26.0283348,7.00016154 Z M18.4357783,3.55508462 C18.4357783,4.05531538 18.5773522,4.42900769 18.8610826,4.67723846 C19.1442304,4.92654615 19.5013696,5.05039231 19.9301696,5.05039231 C20.3566391,5.05039231 20.712613,4.92493077 20.9957609,4.67508462 C21.2777435,4.42577692 21.4193174,4.04454615 21.4193174,3.53354615 C21.4193174,3.05108462 21.2777435,2.68493077 20.9928478,2.4367 C20.706787,2.18846923 20.3537261,2.06462308 19.9301696,2.06462308 C19.5013696,2.06462308 19.1442304,2.18846923 18.8610826,2.43562308 C18.5773522,2.68223846 18.4357783,3.05646923 18.4357783,3.55508462 Z M17.5525435,3.55508462 C17.5525435,2.83246923 17.8129696,2.29777692 18.3361522,1.95046923 C18.7713609,1.66239231 19.3027,1.51646923 19.9301696,1.51646923 C20.6275522,1.51646923 21.1979261,1.69254615 21.6395435,2.0447 C22.0829087,2.39577692 22.3025522,2.88093077 22.3025522,3.49962308 C22.3025522,4.00254615 22.2052565,4.39777692 22.0095,4.68423846 C21.8137435,4.97285385 21.5288478,5.19577692 21.1553957,5.35462308 C20.7801957,5.51400769 20.3735348,5.59262308 19.9301696,5.59262308 C19.2211348,5.59262308 18.6478478,5.4187 18.2091435,5.06762308 C17.7704391,4.71816154 17.5525435,4.21362308 17.5525435,3.55508462 Z M14.6074565,5.50539231 L14.6074565,1.60585385 L15.3799957,1.60585385 L15.3799957,2.19654615 C15.5769174,1.92031538 15.7598565,1.73723846 15.9276478,1.64946923 C16.0936913,1.5617 16.2777957,1.51646923 16.478213,1.51646923 C16.7683522,1.51646923 17.061987,1.58862308 17.3620304,1.7297 L17.0649,2.34354615 C16.8563261,2.2477 16.6460043,2.20031538 16.4356826,2.20031538 C16.2469174,2.20031538 16.0797087,2.24393077 15.9293957,2.33008462 C15.7796652,2.41785385 15.6730478,2.53846923 15.6095435,2.69246923 C15.5139957,2.92616154 15.4662217,3.18408462 15.4662217,3.46354615 L15.4662217,5.50539231 L14.6074565,5.50539231 Z M12.5019087,5.50539231 L12.5019087,4.93300769 C12.1063174,5.37346923 11.5697348,5.59262308 10.8921609,5.59262308 C10.5944478,5.59262308 10.3136304,5.54900769 10.0543696,5.46123846 C9.7951087,5.37346923 9.60284783,5.26200769 9.47758696,5.12900769 C9.35057826,4.99493077 9.26260435,4.83231538 9.21191739,4.63900769 C9.17754348,4.50977692 9.16006522,4.30354615 9.16006522,4.02085385 L9.16006522,1.60585385 L10.0182478,1.60585385 L10.0182478,3.76831538 C10.0182478,4.11346923 10.0363087,4.34608462 10.0712652,4.4667 C10.1260304,4.64062308 10.2402217,4.77631538 10.4144217,4.87646923 C10.5903696,4.97500769 10.8071,5.02454615 11.064613,5.02454615 C11.3221261,5.02454615 11.5639087,4.97393077 11.7899609,4.8727 C12.0165957,4.77093077 12.1762304,4.63146923 12.2694478,4.45754615 C12.3638304,4.28146923 12.4110217,4.02731538 12.4110217,3.69562308 L12.4110217,1.60585385 L13.269787,1.60585385 L13.269787,5.50539231 L12.5019087,5.50539231 Z M7.01023913,5.50539231 L7.87075217,5.50539231 L7.87075217,1.60585385 L7.01023913,1.60585385 L7.01023913,5.50539231 Z M7.01023913,0.882161538 L7.87075217,0.882161538 L7.87075217,0.121315385 L7.01023913,0.121315385 L7.01023913,0.882161538 Z M1.48303043,4.87000769 L3.22444783,4.87000769 C3.5244913,4.87000769 3.73481304,4.86085385 3.85541304,4.84523846 C4.06864783,4.81454615 4.24634348,4.76554615 4.38966522,4.69662308 C4.53298696,4.62931538 4.65067391,4.52916154 4.7438913,4.39885385 C4.83477826,4.26693077 4.88196957,4.11616154 4.88196957,3.94493077 C4.88196957,3.74462308 4.81555217,3.57016154 4.68213478,3.41993077 C4.54813478,3.27293077 4.36228261,3.16846923 4.12399565,3.1087 C3.88803913,3.05000769 3.54546522,3.01931538 3.10093478,3.01931538 L1.48303043,3.01931538 L1.48303043,4.87000769 Z M1.48303043,2.38393077 L2.99664783,2.38393077 C3.40563913,2.38393077 3.70043913,2.36293077 3.87988261,2.32200769 C4.11467391,2.26816154 4.29236957,2.17823846 4.41122174,2.05331538 C4.53007391,1.92785385 4.59008261,1.77116154 4.59008261,1.58323846 C4.59008261,1.40554615 4.53531739,1.24723846 4.42403913,1.11208462 C4.31159565,0.974776923 4.15196087,0.882161538 3.94688261,0.832623077 C3.73947391,0.782007692 3.38466522,0.7567 2.8807087,0.7567 L1.48303043,0.7567 L1.48303043,2.38393077 Z M0.555517391,5.50539231 L0.555517391,0.121315385 L3.1825,0.121315385 C3.71675217,0.121315385 4.14555217,0.177315385 4.46773478,0.285007692 C4.79224783,0.393776923 5.0451,0.561776923 5.22745652,0.789007692 C5.41039565,1.01462308 5.50303043,1.25100769 5.50303043,1.49977692 C5.50303043,1.72862308 5.42146522,1.94508462 5.25833478,2.14862308 C5.09753478,2.35162308 4.8510913,2.51585385 4.52366522,2.64131538 C4.94722174,2.73608462 5.27173478,2.89923846 5.49953478,3.12916154 C5.72791739,3.35908462 5.8421087,3.63154615 5.8421087,3.94493077 C5.8421087,4.19693077 5.77161304,4.43116154 5.63295217,4.64816154 C5.49487391,4.86516154 5.32358696,5.03154615 5.12025652,5.14893077 C4.91634348,5.26739231 4.66057826,5.35462308 4.35412609,5.41493077 C4.04767391,5.47523846 3.6713087,5.50539231 3.22444783,5.50539231 L0.555517391,5.50539231 Z" id="Fill-5" fill="#FEFEFE" mask="url(#mask-2)"></path>
                </g>
                <mask id="mask-4" fill="white">
                    <use xlink:href="#path-3"></use>
                </mask>
                <g id="Clip-9"></g>
                <polygon id="Fill-8" fill="#FEFEFE" mask="url(#mask-4)" points="65 58.4865 205 58.4865 205 58 65 58"></polygon>
            </g>
        </g>
    </g>
</svg>