<?xml version="1.0" encoding="UTF-8"?>
<svg width="205px" height="70px" viewBox="0 0 205 70" version="1.1" xmlns="http://www.w3.org/2000/svg" xmlns:xlink="http://www.w3.org/1999/xlink">
    <!-- Generator: Sketch 48.2 (47327) - http://www.bohemiancoding.com/sketch -->
    <title>logo-color</title>
    <desc>Created with Sketch.</desc>
    <defs>
        <polygon id="path-1" points="0 98 221 98 221 0 0 0"></polygon>
    </defs>
    <g id="Symbols" stroke="none" stroke-width="1" fill="none" fill-rule="evenodd">
        <g id="logo-color">
            <g id="Page-1" transform="translate(-10.000000, -11.000000)">
                <path d="M21.7726042,43.0212987 L48.7049657,43.0212987 C52.3618305,43.0212987 55.138234,42.8726171 57.0007048,42.5594846 C58.8626084,42.2621213 60.5083678,41.7006229 61.937983,40.891885 C65.2794248,38.9612766 66.9586553,35.7263248 66.9586553,31.1712603 C66.9586553,26.5998635 65.2459536,23.3485792 61.8046657,21.4179708 C60.2757717,20.5760048 58.5795219,20.0145064 56.7011664,19.7177063 C54.8392628,19.4372387 51.9465613,19.288557 48.0230619,19.288557 L21.7726042,19.288557 L21.7726042,43.0212987 Z M21.7726042,49.2597321 L21.7726042,73.2892738 C21.7726042,74.6099497 21.9887484,75.5504736 22.4045849,76.111972 C22.836306,76.6892397 23.6679789,77.1183889 24.8984691,77.4484171 L24.8984691,79 L11,79 L11,77.4484171 C12.2304902,77.1183889 13.0615959,76.6892397 13.4933169,76.1440737 C13.9091534,75.6000341 14.1252976,74.6426146 14.1252976,73.2892738 L14.1252976,18.7107262 C14.1252976,17.3579486 13.9091534,16.3999659 13.4933169,15.8390306 C13.0615959,15.2617629 12.2304902,14.8489462 11,14.5515829 L11,13 L47.4744755,13 C52.4781286,13 56.4350991,13.2646984 59.3448199,13.7929687 C62.2375214,14.3370083 64.7643095,15.2617629 66.9087322,16.5818756 C69.11953,17.9352163 70.8986067,19.7835993 72.2618468,22.1439201 C73.824212,24.8173735 74.6059619,27.8214182 74.6059619,31.1712603 C74.6059619,36.2044714 72.9267314,40.2977216 69.5682703,43.4831129 C66.2103766,46.6521717 61.5890888,48.4678898 55.7202916,48.9133714 L72.610741,75.0390989 C73.625087,76.639116 75.087606,77.4484171 77,77.4484171 L77,79 L61.6219926,79 L61.6219926,77.4484171 C63.2178289,77.1842819 63.9995788,76.7388002 63.9995788,76.0956396 C63.9995788,75.7650482 63.4339731,74.7254032 62.3038964,72.9592457 L47.2084082,49.2597321 L21.7726042,49.2597321 Z" id="Fill-1" fill="#F4811F"></path>
                <path d="M198.867397,44.3513748 L198.867397,63.5577363 C198.867397,64.0272956 198.94531,64.3623775 199.093796,64.5618707 C199.249621,64.7669208 199.547157,64.9197359 199.988098,65.0375425 L199.988098,65.5893441 L195.002815,65.5893441 L195.002815,65.0375425 C195.44432,64.9197359 195.742985,64.7669208 195.897117,64.5735402 C196.046167,64.3801596 196.12408,64.0395208 196.12408,63.5577363 L196.12408,44.3513748 L188.055035,44.3513748 C187.56554,44.3513748 187.220014,44.4219476 187.017328,44.5692058 C186.808431,44.7097957 186.659381,45.0032008 186.55211,45.4377515 L185.990913,45.4377515 L185.990913,41 L186.55211,41 C186.659381,41.4456645 186.808431,41.7451822 187.017328,41.8918847 C187.220014,42.0391429 187.56554,42.1152726 188.055035,42.1152726 L206.937007,42.1152726 C207.425373,42.1152726 207.771464,42.0391429 207.974714,41.8918847 C208.183046,41.7451822 208.332096,41.4456645 208.439367,41 L209,41 L209,45.4377515 L208.439367,45.4377515 C208.332096,45.0032008 208.183046,44.7097957 207.974714,44.5692058 C207.771464,44.4219476 207.425373,44.3513748 206.937007,44.3513748 L198.867397,44.3513748 Z M164.187778,52.792327 L173.848953,52.792327 C175.161048,52.792327 176.156411,52.740092 176.824879,52.6283981 C177.493347,52.522261 178.083339,52.3227678 178.596546,52.0354753 C179.79516,51.3486408 180.397007,50.1978039 180.397007,48.5779635 C180.397007,46.9525662 179.782739,45.7956167 178.548556,45.1087821 C177.99978,44.8092645 177.391722,44.610327 176.717608,44.5036342 C176.049704,44.4047212 175.011997,44.3513748 173.605052,44.3513748 L164.187778,44.3513748 L164.187778,52.792327 Z M164.187778,55.0117584 L164.187778,63.5577363 C164.187778,64.0272956 164.265127,64.3623775 164.414177,64.5618707 C164.569438,64.7669208 164.866974,64.9197359 165.309044,65.0375425 L165.309044,65.5893441 L160.322631,65.5893441 L160.322631,65.0375425 C160.764136,64.9197359 161.062237,64.7669208 161.217498,64.5735402 C161.366548,64.3801596 161.444461,64.0395208 161.444461,63.5577363 L161.444461,44.1463247 C161.444461,43.6650959 161.366548,43.3244571 161.217498,43.1249639 C161.062237,42.9199138 160.764136,42.7726555 160.322631,42.6670742 L160.322631,42.1152726 L173.407448,42.1152726 C175.202827,42.1152726 176.622193,42.2091845 177.665546,42.3964525 C178.703253,42.5903888 179.61054,42.9199138 180.379505,43.389473 C181.172746,43.870146 181.810727,44.527529 182.299658,45.3671786 C182.859726,46.3179666 183.140889,47.3860055 183.140889,48.5779635 C183.140889,50.3684012 182.538477,51.8237569 181.333653,52.9568117 C180.128829,54.0843095 178.470644,54.7300229 176.366436,54.8883949 L182.424995,64.1806664 C182.788588,64.7496944 183.313652,65.0375425 183.999058,65.0375425 L183.999058,65.5893441 L178.483065,65.5893441 L178.483065,65.0375425 C179.055553,64.9436307 179.336152,64.7847029 179.336152,64.5557581 C179.336152,64.4385072 179.132902,64.0684167 178.726965,63.4410411 L173.312033,55.0117584 L164.187778,55.0117584 Z M141.369521,44.0585254 C137.791183,44.0585254 134.958661,45.0443219 132.877601,47.0170264 C130.963094,48.8302474 130.008382,51.1019138 130.008382,53.8431394 C130.008382,56.5965903 130.963094,58.8738136 132.877601,60.6875903 C134.94624,62.659739 137.791183,63.6460913 141.405654,63.6460913 C145.025772,63.6460913 147.882006,62.659739 149.96363,60.6875903 C151.866281,58.8738136 152.814218,56.6432684 152.814218,53.9781724 C152.814218,51.1019138 151.866281,48.7835693 149.96363,47.0170264 C148.824862,45.9601014 147.601972,45.2199204 146.295523,44.7981507 C144.852444,44.3163662 143.20668,44.0696392 141.369521,44.0585254 Z M141.369521,41.704061 C145.573983,41.704061 148.960927,42.789882 151.538257,44.955967 C152.981335,46.1595946 154.066467,47.6327324 154.788571,49.3703794 C155.379127,50.8085087 155.676663,52.3466625 155.676663,53.9959546 C155.676663,56.2320567 155.033037,58.3281247 153.738444,60.2763787 C152.319642,62.4307942 150.345289,63.9806175 147.816514,64.9314055 C145.92572,65.6415791 143.791025,66 141.405654,66 C137.219258,66 133.849252,64.914179 131.284908,62.7475383 C129.853685,61.5327969 128.767989,60.059659 128.034029,58.3336816 C127.443473,56.9072218 127.145937,55.4163018 127.145937,53.8431394 C127.145937,51.5186823 127.784482,49.3703794 129.066654,47.4099002 C130.467954,45.2904932 132.447388,43.7467825 135.00665,42.7726555 C136.801465,42.0919336 138.924304,41.7396252 141.369521,41.704061 Z M105.759466,52.792327 L114.705312,52.792327 C116.035473,52.792327 117.01898,52.740092 117.669382,52.6400676 C118.313008,52.5344862 118.892272,52.3344373 119.404915,52.0354753 C120.591108,51.3486408 121.187309,50.1978039 121.187309,48.5779635 C121.187309,46.9525662 120.591108,45.7956167 119.404915,45.1087821 C118.892272,44.8092645 118.319219,44.610327 117.675028,44.5036342 C117.037611,44.4047212 116.04733,44.3513748 114.705312,44.3513748 L105.759466,44.3513748 L105.759466,52.792327 Z M105.759466,55.0295406 L105.759466,63.7811243 C105.759466,64.1389895 105.84246,64.4096112 106.003931,64.5913223 C106.171048,64.7730334 106.463503,64.9197359 106.880167,65.0375425 L106.880167,65.5893441 L101.894883,65.5893441 L101.894883,65.0375425 C102.318322,64.9197359 102.604566,64.7730334 102.771119,64.5913223 C102.93259,64.4096112 103.016149,64.1389895 103.016149,63.7811243 L103.016149,43.9057103 C103.016149,43.5589589 102.93259,43.2950054 102.771119,43.1127387 C102.604566,42.9310276 102.318322,42.7843251 101.894883,42.6670742 L101.894883,42.1152726 L114.44278,42.1152726 C116.20259,42.1152726 117.567756,42.2091845 118.545617,42.3914512 C119.530253,42.5731623 120.401407,42.9076885 121.169807,43.389473 C121.97547,43.870146 122.619096,44.527529 123.108027,45.3671786 C123.656803,46.3062971 123.931191,47.3571095 123.931191,48.5307297 C123.931191,50.1333437 123.430969,51.5070128 122.428267,52.6578497 C121.658738,53.5375092 120.686523,54.1548823 119.50033,54.5060793 C118.319219,54.8528307 116.631675,55.0295406 114.44278,55.0295406 L105.759466,55.0295406 Z M91.4224007,56.7666318 L86.0548934,45.1615728 L80.6873861,56.7666318 L91.4224007,56.7666318 Z M92.4301845,59.002734 L79.6733919,59.002734 L77.5742657,63.4582676 C77.3772256,63.8811487 77.2818108,64.1806664 77.2818108,64.3501523 C77.2818108,64.6913468 77.6216908,64.9197359 78.3138718,65.0375425 L78.3138718,65.5893441 L73,65.5893441 L73,65.0375425 C73.4770741,64.9553002 73.8406667,64.7847029 74.0913423,64.5207495 C74.3414534,64.2562404 74.6700417,63.6872124 75.081624,62.8008847 L83.8123627,44.2463491 C84.0212591,43.8001289 84.1285302,43.5006113 84.1285302,43.3361266 C84.1285302,43.0366089 83.8422857,42.813221 83.2697968,42.6670742 L83.2697968,42.1152726 L89.072599,42.1152726 L89.072599,42.6670742 C88.50011,42.8487853 88.2138655,43.0893996 88.2138655,43.389473 C88.2138655,43.5183934 88.3211366,43.8001289 88.530033,44.2463491 L96.8971792,62.1318322 C97.5176578,63.4527107 97.9230297,64.2217875 98.1195052,64.4501767 C98.3165452,64.6791216 98.7518401,64.8786148 99.414098,65.0375425 L99.414098,65.5893441 L93.7603462,65.5893441 L93.7603462,65.0375425 C94.4338958,64.9436307 94.76813,64.6913468 94.76813,64.2795795 C94.76813,64.0978684 94.6427922,63.7400031 94.3864707,63.2176532 L92.4301845,59.002734 Z" id="Fill-3" fill="#404042"></path>
                <path d="M205.377337,77.1123288 L208.11988,77.1123288 C208.083749,76.779726 207.977615,76.5293151 207.805995,76.3627397 C207.541225,76.1035616 207.19629,75.9736986 206.775706,75.9736986 C206.392383,75.9736986 206.070029,76.0767123 205.81034,76.2832877 C205.550087,76.489863 205.405564,76.7671233 205.377337,77.1123288 Z M208.110847,78.2010959 L208.971208,78.2865753 C208.835154,78.6936986 208.584497,79.0087671 208.217545,79.2328767 C207.850593,79.4553425 207.381459,79.5676712 206.810708,79.5676712 C206.093176,79.5676712 205.522424,79.389589 205.10297,79.0328767 C204.681257,78.6750685 204.471248,78.1736986 204.471248,77.5293151 C204.471248,76.859726 204.683515,76.3424658 205.10918,75.9736986 C205.535409,75.6043836 206.086401,75.419726 206.765545,75.419726 C207.422671,75.419726 207.958985,75.6010959 208.375053,75.9616438 C208.791684,76.3232877 209,76.8317808 209,77.4871233 C209,77.5276712 208.998871,77.5868493 208.994919,77.6663014 L205.331609,77.6663014 C205.36153,78.1030137 205.515085,78.4367123 205.788888,78.6673973 C206.064949,78.900274 206.405367,79.0158904 206.815789,79.0158904 C207.120077,79.0158904 207.381459,78.9506849 207.598243,78.8208219 C207.813898,78.6920548 207.98439,78.4854795 208.110847,78.2010959 Z M198.812848,79.4789041 L197.310603,75.5106849 L198.1704,75.5106849 L198.95229,77.8016438 L199.243029,78.6536986 C199.255448,78.610411 199.340694,78.3375342 199.496508,77.8345205 L200.278962,75.5106849 L201.134243,75.5106849 L201.870405,77.8109589 L202.116545,78.5709589 L202.398251,77.8043836 L203.239418,75.5106849 L204.049535,75.5106849 L202.513418,79.4789041 L201.649105,79.4789041 L200.867779,77.1024658 L200.6764,76.4252055 L199.683371,79.4789041 L198.812848,79.4789041 Z M193.181546,77.4942466 C193.181546,78.0032877 193.319294,78.3835616 193.594226,78.6361644 C193.869158,78.889863 194.215786,79.0158904 194.63016,79.0158904 C195.043404,79.0158904 195.387774,78.8882192 195.662706,78.6339726 C195.93538,78.380274 196.073692,77.9923288 196.073692,77.4723288 C196.073692,76.9813699 195.93538,76.6087671 195.659883,76.3561644 C195.384387,76.1035616 195.040017,75.9775342 194.63016,75.9775342 C194.215786,75.9775342 193.869158,76.1035616 193.594226,76.3550685 C193.319294,76.6060274 193.181546,76.9868493 193.181546,77.4942466 Z M192.326266,77.4942466 C192.326266,76.7589041 192.57918,76.2147945 193.086139,75.8613699 C193.507287,75.5682192 194.022148,75.419726 194.63016,75.419726 C195.305351,75.419726 195.859167,75.5989041 196.287089,75.9572603 C196.716141,76.3145205 196.928973,76.8082192 196.928973,77.4378082 C196.928973,77.949589 196.834694,78.3517808 196.645008,78.6432877 C196.455887,78.9369863 196.178697,79.1638356 195.817391,79.3254795 C195.455519,79.4876712 195.059776,79.5676712 194.63016,79.5676712 C193.943113,79.5676712 193.387604,79.3906849 192.963068,79.0334247 C192.538533,78.6778082 192.326266,78.1643836 192.326266,77.4942466 Z M187.904212,79.4789041 L187.904212,74 L188.736911,74 L188.736911,77.1238356 L190.70829,75.5106849 L191.784306,75.5106849 L189.907205,76.9824658 L191.975121,79.4789041 L190.947655,79.4789041 L189.324598,77.4493151 L188.736911,77.9057534 L188.736911,79.4789041 L187.904212,79.4789041 Z M182.630829,79.4789041 L182.630829,75.5106849 L183.378847,75.5106849 L183.378847,76.0745205 C183.741282,75.6383562 184.26179,75.419726 184.942627,75.419726 C185.239576,75.419726 185.511685,75.4635616 185.758954,75.5484932 C186.008481,75.6356164 186.192522,75.7479452 186.316721,75.8882192 C186.44092,76.0279452 186.526166,76.1928767 186.57641,76.3841096 C186.606895,76.509589 186.622702,76.7276712 186.622702,77.0389041 L186.622702,79.4789041 L185.78831,79.4789041 L185.78831,77.0641096 C185.78831,76.7912329 185.75726,76.5857534 185.692903,76.4493151 C185.628545,76.3145205 185.512249,76.2060274 185.347968,76.1254795 C185.183122,76.0438356 184.989484,76.0032877 184.76649,76.0032877 C184.411958,76.0032877 184.107105,76.0953425 183.847981,76.2756164 C183.59055,76.4580822 183.462963,76.8032877 183.462963,77.3112329 L183.462963,79.4789041 L182.630829,79.4789041 Z M180.580979,79.4789041 L180.580979,78.8964384 C180.197655,79.3446575 179.677712,79.5676712 179.020022,79.5676712 C178.73267,79.5676712 178.459996,79.5232877 178.208775,79.4339726 C177.958683,79.3446575 177.77182,79.2312329 177.651008,79.0958904 C177.527374,78.9594521 177.442128,78.7939726 177.393577,78.5972603 C177.359705,78.4657534 177.342769,78.2558904 177.342769,77.9682192 L177.342769,75.5106849 L178.174903,75.5106849 L178.174903,77.7112329 C178.174903,78.0624658 178.192404,78.2991781 178.225147,78.4219178 C178.278778,78.5989041 178.388864,78.7369863 178.558227,78.8389041 C178.728718,78.9391781 178.939292,78.989589 179.18769,78.989589 C179.437782,78.989589 179.671502,78.9380822 179.891109,78.8350685 C180.110151,78.7315068 180.2654,78.589589 180.355162,78.4126027 C180.446618,78.2334247 180.49291,77.9747945 180.49291,77.6372603 L180.49291,75.5106849 L181.325045,75.5106849 L181.325045,79.4789041 L180.580979,79.4789041 Z M172.091403,79.4789041 L172.091403,74 L172.924102,74 L172.924102,75.9660274 C173.312507,75.6021918 173.803093,75.419726 174.395862,75.419726 C174.758862,75.419726 175.075005,75.4789041 175.343162,75.5945205 C175.61132,75.709589 175.803828,75.8706849 175.919559,76.0745205 C176.034726,76.2789041 176.093438,76.5753425 176.093438,76.9638356 L176.093438,79.4789041 L175.259046,79.4789041 L175.259046,76.9638356 C175.259046,76.6279452 175.169284,76.3830137 174.989195,76.229589 C174.809671,76.0767123 174.553369,75.9994521 174.223677,75.9994521 C173.977536,75.9994521 173.744945,76.0509589 173.527597,76.1545205 C173.309119,76.2580822 173.154435,76.3983562 173.062979,76.5753425 C172.970394,76.7517808 172.924102,76.9967123 172.924102,77.3073973 L172.924102,79.4789041 L172.091403,79.4789041 Z M170.560367,78.0252055 L171.377823,78.1117808 C171.289754,78.5671233 171.06055,78.9243836 170.690776,79.1813699 C170.323259,79.4394521 169.869932,79.5676712 169.333053,79.5676712 C168.661813,79.5676712 168.120418,79.3906849 167.713384,79.0367123 C167.304091,78.6821918 167.098598,78.1731507 167.098598,77.509589 C167.098598,77.0805479 167.187795,76.7063014 167.362803,76.3841096 C167.539505,76.0630137 167.805968,75.8219178 168.16671,75.6613699 C168.52463,75.500274 168.916422,75.419726 169.338134,75.419726 C169.871061,75.419726 170.30971,75.5293151 170.646741,75.7479452 C170.98716,75.9660274 171.204508,76.2750685 171.301045,76.6761644 L170.490363,76.7775342 C170.413021,76.5106849 170.276967,76.310137 170.081635,76.1747945 C169.885739,76.0416438 169.649197,75.9736986 169.372007,75.9736986 C168.951423,75.9736986 168.609876,76.0953425 168.347364,76.3391781 C168.085981,76.5808219 167.954443,76.9649315 167.954443,77.489863 C167.954443,78.0235616 168.0809,78.4115068 168.336073,78.6536986 C168.587858,78.8947945 168.918115,79.0158904 169.32515,79.0158904 C169.652584,79.0158904 169.923564,78.9342466 170.14317,78.7720548 C170.363342,78.610411 170.502219,78.3610959 170.560367,78.0252055 Z M165.221497,77.4871233 C164.917774,77.5868493 164.465012,77.6717808 163.861517,77.7413699 C163.51884,77.7813699 163.276652,77.8252055 163.135516,77.8756164 C162.992687,77.9254795 162.883166,77.9978082 162.806953,78.0947945 C162.729611,78.1906849 162.690093,78.2969863 162.690093,78.4136986 C162.690093,78.5934247 162.775339,78.7430137 162.942443,78.8624658 C163.110112,78.9819178 163.356252,79.0416438 163.679734,79.0416438 C164.000394,79.0416438 164.286616,78.9852055 164.536144,78.8712329 C164.785671,78.7583562 164.969712,78.6027397 165.086572,78.4060274 C165.176898,78.2547945 165.221497,78.029589 165.221497,77.7342466 L165.221497,77.4871233 Z M165.290371,78.989589 C164.980438,79.2010959 164.684054,79.350137 164.400089,79.4383562 C164.114431,79.5249315 163.807885,79.5676712 163.481016,79.5676712 C162.940749,79.5676712 162.527505,79.4619178 162.236202,79.2493151 C161.948285,79.0367123 161.802069,78.7632877 161.802069,78.4328767 C161.802069,78.2378082 161.856265,78.060274 161.966351,77.899726 C162.075307,77.7391781 162.21983,77.610411 162.395967,77.5128767 C162.575491,77.4164384 162.773645,77.3419178 162.996639,77.2926027 C163.158662,77.2580822 163.404803,77.2235616 163.735059,77.1923288 C164.408557,77.1260274 164.90366,77.050411 165.221497,76.96 C165.224884,76.8679452 165.226014,76.8093151 165.226014,76.7846575 C165.226014,76.5106849 165.146978,76.3167123 164.988342,76.2060274 C164.777203,76.0520548 164.459931,75.9775342 164.041605,75.9775342 C163.650378,75.9775342 163.360768,76.0317808 163.172776,76.1430137 C162.986477,76.2547945 162.849858,76.450411 162.759532,76.7331507 L161.946027,76.6421918 C162.019982,76.3610959 162.141923,76.1326027 162.310721,75.9605479 C162.480648,75.7873973 162.726224,75.6536986 163.046883,75.5605479 C163.367543,75.4668493 163.738447,75.419726 164.161288,75.419726 C164.581872,75.419726 164.921161,75.4608219 165.183108,75.539726 C165.44562,75.620274 165.637564,75.7194521 165.762893,75.8410959 C165.886527,75.9616438 165.971208,76.1139726 166.021453,76.2991781 C166.048551,76.4142466 166.0621,76.6208219 166.0621,76.9189041 L166.0621,77.8153425 C166.0621,78.4421918 166.081294,78.8367123 166.11686,79.0016438 C166.151862,79.1676712 166.222429,79.3265753 166.326305,79.4789041 L165.456346,79.4789041 C165.371101,79.3391781 165.314082,79.1764384 165.290371,78.989589 Z M158.920085,79.4789041 L158.920085,75.5106849 L159.669231,75.5106849 L159.669231,76.1117808 C159.860611,75.8306849 160.037312,75.6443836 160.1999,75.5550685 C160.360795,75.4657534 160.53919,75.419726 160.732827,75.419726 C161.015098,75.419726 161.298498,75.4931507 161.589237,75.6367123 L161.30245,76.2613699 C161.099779,76.1638356 160.896544,76.1156164 160.692745,76.1156164 C160.508704,76.1156164 160.346116,76.16 160.202158,76.2476712 C160.055942,76.3369863 159.953196,76.459726 159.891661,76.6164384 C159.798511,76.8542466 159.753348,77.1167123 159.753348,77.4010959 L159.753348,79.4789041 L158.920085,79.4789041 Z M152.816826,77.8345205 L155.377022,77.8345205 L155.377022,77.1583562 L152.816826,77.1583562 L152.816826,77.8345205 Z M145.785461,77.4942466 C145.785461,78.0032877 145.923774,78.3835616 146.198705,78.6361644 C146.473073,78.889863 146.818572,79.0158904 147.234075,79.0158904 C147.647884,79.0158904 147.992254,78.8882192 148.266621,78.6339726 C148.539295,78.380274 148.677043,77.9923288 148.677043,77.4723288 C148.677043,76.9813699 148.539295,76.6087671 148.263798,76.3561644 C147.987738,76.1035616 147.643932,75.9775342 147.234075,75.9775342 C146.818572,75.9775342 146.473073,76.1035616 146.198705,76.3550685 C145.923774,76.6060274 145.785461,76.9868493 145.785461,77.4942466 Z M144.929616,77.4942466 C144.929616,76.7589041 145.18366,76.2147945 145.690054,75.8613699 C146.111202,75.5682192 146.626628,75.419726 147.234075,75.419726 C147.909266,75.419726 148.462517,75.5989041 148.889875,75.9572603 C149.320056,76.3145205 149.533452,76.8082192 149.533452,77.4378082 C149.533452,77.949589 149.438609,78.3517808 149.249488,78.6432877 C149.059802,78.9369863 148.783177,79.1638356 148.421306,79.3254795 C148.058305,79.4876712 147.663691,79.5676712 147.234075,79.5676712 C146.547592,79.5676712 145.991519,79.3906849 145.566419,79.0334247 C145.142448,78.6778082 144.929616,78.1643836 144.929616,77.4942466 Z M139.305653,79.4789041 L137.802844,75.5106849 L138.663205,75.5106849 L139.444531,77.8016438 L139.735269,78.6536986 C139.747689,78.610411 139.832371,78.3375342 139.989878,77.8345205 L140.771203,75.5106849 L141.626484,75.5106849 L142.36321,77.8109589 L142.608786,78.5709589 L142.889363,77.8043836 L143.731659,75.5106849 L144.541776,75.5106849 L143.005094,79.4789041 L142.14191,79.4789041 L141.359455,77.1024658 L141.169205,76.4252055 L140.175612,79.4789041 L139.305653,79.4789041 Z M133.674351,77.4942466 C133.674351,78.0032877 133.8121,78.3835616 134.086467,78.6361644 C134.360834,78.889863 134.707462,79.0158904 135.1224,79.0158904 C135.535645,79.0158904 135.880015,78.8882192 136.155512,78.6339726 C136.428185,78.380274 136.565369,77.9923288 136.565369,77.4723288 C136.565369,76.9813699 136.428185,76.6087671 136.152124,76.3561644 C135.876628,76.1035616 135.532822,75.9775342 135.1224,75.9775342 C134.707462,75.9775342 134.360834,76.1035616 134.086467,76.3550685 C133.8121,76.6060274 133.674351,76.9868493 133.674351,77.4942466 Z M132.819071,77.4942466 C132.819071,76.7589041 133.071421,76.2147945 133.577815,75.8613699 C133.999527,75.5682192 134.514954,75.419726 135.1224,75.419726 C135.798721,75.419726 136.350843,75.5989041 136.778765,75.9572603 C137.208381,76.3145205 137.421778,76.8082192 137.421778,77.4378082 C137.421778,77.949589 137.326935,78.3517808 137.137249,78.6432877 C136.948128,78.9369863 136.670938,79.1638356 136.309631,79.3254795 C135.946631,79.4876712 135.551452,79.5676712 135.1224,79.5676712 C134.435918,79.5676712 133.87928,79.3906849 133.455874,79.0334247 C133.030774,78.6778082 132.819071,78.1643836 132.819071,77.4942466 Z M128.395888,79.4789041 L128.395888,74 L129.229151,74 L129.229151,77.1238356 L131.199966,75.5106849 L132.277676,75.5106849 L130.399446,76.9824658 L132.468491,79.4789041 L131.439896,79.4789041 L129.816839,77.4493151 L129.229151,77.9057534 L129.229151,79.4789041 L128.395888,79.4789041 Z M127.577303,78.8772603 L127.69755,79.4717808 C127.46383,79.5112329 127.253821,79.5309589 127.069215,79.5309589 C126.766057,79.5309589 126.532336,79.4931507 126.364668,79.4147945 C126.199257,79.3386301 126.082397,79.2367123 126.014087,79.110137 C125.946342,78.9852055 125.911341,78.72 125.911341,78.3167123 L125.911341,76.0334247 L125.301071,76.0334247 L125.301071,75.5106849 L125.911341,75.5106849 L125.911341,74.5271233 L126.740652,74.1243836 L126.740652,75.5106849 L127.577303,75.5106849 L127.577303,76.0334247 L126.740652,76.0334247 L126.740652,78.3539726 C126.740652,78.5468493 126.75533,78.6690411 126.783557,78.7238356 C126.813478,78.7791781 126.8609,78.8219178 126.926951,78.8553425 C126.993567,78.8871233 127.087845,78.9041096 127.21148,78.9041096 C127.304065,78.9041096 127.426006,78.8947945 127.577303,78.8772603 Z M123.626641,77.4871233 C123.322918,77.5868493 122.870155,77.6717808 122.266661,77.7413699 C121.924548,77.7813699 121.681231,77.8252055 121.541225,77.8756164 C121.398396,77.9254795 121.287746,77.9978082 121.212661,78.0947945 C121.13419,78.1906849 121.095801,78.2969863 121.095801,78.4136986 C121.095801,78.5934247 121.180483,78.7430137 121.348151,78.8624658 C121.515256,78.9819178 121.76196,79.0416438 122.085443,79.0416438 C122.405538,79.0416438 122.692325,78.9852055 122.941852,78.8712329 C123.190815,78.7583562 123.375985,78.6027397 123.49228,78.4060274 C123.582042,78.2547945 123.626641,78.029589 123.626641,77.7342466 L123.626641,77.4871233 Z M123.696644,78.989589 C123.387275,79.2010959 123.089762,79.350137 122.805798,79.4383562 C122.519011,79.5249315 122.213594,79.5676712 121.88616,79.5676712 C121.347022,79.5676712 120.933778,79.4619178 120.64191,79.2493151 C120.353429,79.0367123 120.207778,78.7632877 120.207778,78.4328767 C120.207778,78.2378082 120.261409,78.060274 120.373188,77.899726 C120.481016,77.7391781 120.624974,77.610411 120.80224,77.5128767 C120.98007,77.4164384 121.178789,77.3419178 121.401783,77.2926027 C121.564371,77.2580822 121.811076,77.2235616 122.140768,77.1923288 C122.813137,77.1260274 123.309369,77.050411 123.626641,76.96 C123.630028,76.8679452 123.631157,76.8093151 123.631157,76.7846575 C123.631157,76.5106849 123.552686,76.3167123 123.39405,76.2060274 C123.182911,76.0520548 122.865639,75.9775342 122.447314,75.9775342 C122.055522,75.9775342 121.766477,76.0317808 121.578484,76.1430137 C121.392186,76.2547945 121.255002,76.450411 121.164675,76.7331507 L120.3523,76.6421918 C120.425691,76.3610959 120.547632,76.1326027 120.716429,75.9605479 C120.885227,75.7873973 121.131368,75.6536986 121.452592,75.5605479 C121.772687,75.4668493 122.14359,75.419726 122.566432,75.419726 C122.98758,75.419726 123.326305,75.4608219 123.588252,75.539726 C123.850764,75.620274 124.043837,75.7194521 124.168036,75.8410959 C124.291671,75.9616438 124.376917,76.1139726 124.427161,76.2991781 C124.454824,76.4142466 124.468373,76.6208219 124.468373,76.9189041 L124.468373,77.8153425 C124.468373,78.4421918 124.485873,78.8367123 124.521439,79.0016438 C124.556441,79.1676712 124.628138,79.3265753 124.732578,79.4789041 L123.86149,79.4789041 C123.776245,79.3391781 123.71979,79.1764384 123.696644,78.989589 Z M115.775562,77.4975342 C115.775562,78.0071233 115.908794,78.3868493 116.173564,78.6383562 C116.439463,78.889863 116.751654,79.0158904 117.112961,79.0158904 C117.476526,79.0158904 117.785894,78.8947945 118.039938,78.6542466 C118.294546,78.4147945 118.422133,78.0476712 118.422133,77.5539726 C118.422133,77.010411 118.292288,76.6126027 118.033164,76.3583562 C117.774039,76.1035616 117.456202,75.9775342 117.074572,75.9775342 C116.705926,75.9775342 116.395993,76.099726 116.148159,76.3435616 C115.900326,76.5868493 115.775562,76.9720548 115.775562,77.4975342 Z M118.408019,79.4789041 L118.408019,78.9775342 C118.096957,79.3720548 117.638549,79.5676712 117.03449,79.5676712 C116.642698,79.5676712 116.28252,79.4810959 115.954522,79.3073973 C115.625958,79.1331507 115.37135,78.889863 115.189568,78.5758904 C115.009479,78.2635616 114.920281,77.9046575 114.920281,77.4975342 C114.920281,77.1024658 115.001575,76.7430137 115.164728,76.420274 C115.328445,76.0969863 115.573456,75.849863 115.900326,75.6789041 C116.226631,75.5068493 116.593018,75.419726 116.99723,75.419726 C117.292485,75.419726 117.556126,75.4712329 117.787023,75.5720548 C118.019615,75.6723288 118.207607,75.8038356 118.353259,75.9660274 L118.353259,74 L119.180312,74 L119.180312,79.4789041 L118.408019,79.4789041 Z M110.496534,77.4942466 C110.496534,78.0032877 110.633718,78.3835616 110.909214,78.6361644 C111.183581,78.889863 111.529645,79.0158904 111.945148,79.0158904 C112.358392,79.0158904 112.702762,78.8882192 112.97713,78.6339726 C113.250932,78.380274 113.387551,77.9923288 113.387551,77.4723288 C113.387551,76.9813699 113.250932,76.6087671 112.974871,76.3561644 C112.698246,76.1035616 112.355569,75.9775342 111.945148,75.9775342 C111.529645,75.9775342 111.183581,76.1035616 110.909214,76.3550685 C110.633718,76.6060274 110.496534,76.9868493 110.496534,77.4942466 Z M109.640689,77.4942466 C109.640689,76.7589041 109.894168,76.2147945 110.399997,75.8613699 C110.82171,75.5682192 111.337136,75.419726 111.945148,75.419726 C112.620339,75.419726 113.17359,75.5989041 113.601512,75.9572603 C114.031129,76.3145205 114.243961,76.8082192 114.243961,77.4378082 C114.243961,77.949589 114.149118,78.3517808 113.958867,78.6432877 C113.769746,78.9369863 113.493685,79.1638356 113.132378,79.3254795 C112.768814,79.4876712 112.373635,79.5676712 111.945148,79.5676712 C111.257536,79.5676712 110.702027,79.3906849 110.276927,79.0334247 C109.852392,78.6778082 109.640689,78.1643836 109.640689,77.4942466 Z M105.435984,77.5172603 C105.435984,78.0273973 105.563005,78.4043836 105.819307,78.650411 C106.075045,78.8936986 106.386672,79.0158904 106.749672,79.0158904 C107.118882,79.0158904 107.437283,78.889863 107.70036,78.6361644 C107.964001,78.3835616 108.096103,77.9912329 108.096103,77.4613699 C108.096103,76.9545205 107.966823,76.5769863 107.709392,76.3243836 C107.451961,76.0728767 107.144851,75.9468493 106.786932,75.9468493 C106.431835,75.9468493 106.11795,76.0810959 105.845276,76.3484932 C105.572038,76.6164384 105.435984,77.0071233 105.435984,77.5172603 Z M104.682885,81 L104.682885,75.5106849 L105.4405,75.5106849 L105.4405,76.0268493 C105.618895,75.8241096 105.821001,75.6723288 106.046818,75.5720548 C106.270941,75.4712329 106.544179,75.419726 106.864838,75.419726 C107.284857,75.419726 107.654067,75.5073973 107.974727,75.6816438 C108.296516,75.8558904 108.538139,76.1024658 108.701856,76.420274 C108.865009,76.7375342 108.947432,77.0854795 108.947432,77.4646575 C108.947432,77.8706849 108.857105,78.2367123 108.675888,78.5616438 C108.495799,78.8871233 108.233851,79.1353425 107.889481,79.309589 C107.545675,79.4810959 107.18324,79.5676712 106.804997,79.5676712 C106.527242,79.5676712 106.278844,79.5210959 106.057544,79.4263014 C105.836244,79.3326027 105.656719,79.2126027 105.514455,79.0679452 L105.514455,81 L104.682885,81 Z M97.3257799,77.4942466 C97.3257799,78.0032877 97.4629634,78.3835616 97.7378952,78.6361644 C98.0122624,78.889863 98.3583263,79.0158904 98.7738289,79.0158904 C99.1870733,79.0158904 99.5320082,78.8882192 99.8063754,78.6339726 C100.079613,78.380274 100.216797,77.9923288 100.216797,77.4723288 C100.216797,76.9813699 100.079613,76.6087671 99.8035527,76.3561644 C99.5263628,76.1035616 99.1842506,75.9775342 98.7738289,75.9775342 C98.3583263,75.9775342 98.0122624,76.1035616 97.7378952,76.3550685 C97.4629634,76.6060274 97.3257799,76.9868493 97.3257799,77.4942466 Z M96.4699349,77.4942466 C96.4699349,76.7589041 96.7222849,76.2147945 97.2292433,75.8613699 C97.6509558,75.5682192 98.1658177,75.419726 98.7738289,75.419726 C99.4495851,75.419726 100.002271,75.5989041 100.430194,75.9572603 C100.85981,76.3145205 101.072642,76.8082192 101.072642,77.4378082 C101.072642,77.949589 100.978364,78.3517808 100.788678,78.6432877 C100.598992,78.9369863 100.322931,79.1638356 99.9610598,79.3254795 C99.597495,79.4876712 99.203445,79.5676712 98.7738289,79.5676712 C98.0867819,79.5676712 97.531273,79.3906849 97.1061732,79.0334247 C96.6810734,78.6778082 96.4699349,78.1643836 96.4699349,77.4942466 Z M93.6161774,79.4789041 L93.6161774,75.5106849 L94.3647595,75.5106849 L94.3647595,76.1117808 C94.5555745,75.8306849 94.7328406,75.6443836 94.8954285,75.5550685 C95.0563229,75.4657534 95.234718,75.419726 95.4289203,75.419726 C95.710062,75.419726 95.9945909,75.4931507 96.2853298,75.6367123 L95.9974136,76.2613699 C95.7953077,76.1638356 95.5915082,76.1156164 95.3877087,76.1156164 C95.2047973,76.1156164 95.0427739,76.16 94.8971222,76.2476712 C94.752035,76.3369863 94.6487239,76.459726 94.5871888,76.6164384 C94.494604,76.8542466 94.4483116,77.1167123 94.4483116,77.4010959 L94.4483116,79.4789041 L93.6161774,79.4789041 Z M91.5759243,79.4789041 L91.5759243,78.8964384 C91.1926006,79.3446575 90.6726578,79.5676712 90.016096,79.5676712 C89.7276153,79.5676712 89.4555062,79.5232877 89.2042853,79.4339726 C88.9530643,79.3446575 88.7667656,79.2312329 88.6453891,79.0958904 C88.5223191,78.9594521 88.4370733,78.7939726 88.3879582,78.5972603 C88.3546502,78.4657534 88.337714,78.2558904 88.337714,77.9682192 L88.337714,75.5106849 L89.1692837,75.5106849 L89.1692837,77.7112329 C89.1692837,78.0624658 89.1867845,78.2991781 89.220657,78.4219178 C89.2737239,78.5989041 89.384374,78.7369863 89.5531719,78.8389041 C89.7236635,78.9391781 89.9336729,78.989589 90.1832003,78.989589 C90.4327277,78.989589 90.6670124,78.9380822 90.8860545,78.8350685 C91.1056612,78.7315068 91.2603456,78.589589 91.3506722,78.4126027 C91.4421279,78.2334247 91.4878558,77.9747945 91.4878558,77.6372603 L91.4878558,75.5106849 L92.31999,75.5106849 L92.31999,79.4789041 L91.5759243,79.4789041 Z M86.2545557,79.4789041 L87.0883836,79.4789041 L87.0883836,75.5106849 L86.2545557,75.5106849 L86.2545557,79.4789041 Z M86.2545557,74.7742466 L87.0883836,74.7742466 L87.0883836,74 L86.2545557,74 L86.2545557,74.7742466 Z M80.8987501,78.8323288 L82.5861648,78.8323288 C82.8769037,78.8323288 83.0807032,78.8230137 83.1975633,78.8071233 C83.4041855,78.7758904 83.5763707,78.7260274 83.7152479,78.6558904 C83.8541251,78.5873973 83.9681625,78.4854795 84.0584891,78.3528767 C84.1465576,78.2186301 84.1922855,78.0652055 84.1922855,77.8909589 C84.1922855,77.6871233 84.1279277,77.509589 83.9986477,77.3567123 C83.8688032,77.2071233 83.6887144,77.1008219 83.4578169,77.04 C83.2291776,76.980274 82.8972272,76.9490411 82.466482,76.9490411 L80.8987501,76.9490411 L80.8987501,78.8323288 Z M80.8987501,76.3024658 L82.3654291,76.3024658 C82.7617372,76.3024658 83.0473952,76.2810959 83.221274,76.2394521 C83.4487843,76.1846575 83.6209694,76.0931507 83.7361359,75.9660274 C83.8513024,75.8383562 83.9094502,75.6789041 83.9094502,75.4876712 C83.9094502,75.3068493 83.8563833,75.1457534 83.7485558,75.0082192 C83.6395993,74.8684932 83.4849149,74.7742466 83.2861963,74.7238356 C83.0852195,74.6723288 82.7414137,74.6465753 82.2530853,74.6465753 L80.8987501,74.6465753 L80.8987501,76.3024658 Z M80,79.4789041 L80,74 L82.5455178,74 C83.0632024,74 83.478705,74.0569863 83.7908964,74.1665753 C84.1053461,74.2772603 84.3503571,74.4482192 84.5270586,74.6794521 C84.7043247,74.9090411 84.7940868,75.149589 84.7940868,75.4027397 C84.7940868,75.6356164 84.7150509,75.8558904 84.5569793,76.0630137 C84.4011658,76.269589 84.1623648,76.4367123 83.8450924,76.5643836 C84.2555141,76.6608219 84.5699638,76.8268493 84.7906995,77.0608219 C85.0119998,77.2947945 85.1226499,77.5720548 85.1226499,77.8909589 C85.1226499,78.1473973 85.0543404,78.3857534 84.9199795,78.6065753 C84.7861832,78.8273973 84.620208,78.9967123 84.423183,79.1161644 C84.2255934,79.2367123 83.9777597,79.3254795 83.6808108,79.3868493 C83.383862,79.4482192 83.0191682,79.4789041 82.5861648,79.4789041 L80,79.4789041 Z" id="Fill-5" fill="#A6A8AB"></path>
                <mask id="mask-2" fill="white">
                    <use xlink:href="#path-1"></use>
                </mask>
                <g id="Clip-8"></g>
                <polygon id="Fill-7" fill="#231F20" mask="url(#mask-2)" points="73 70.973 209 70.973 209 70 73 70"></polygon>
                <polygon id="Stroke-9" stroke="#FEFEFE" stroke-width="0.216" mask="url(#mask-2)" points="0 97 220 97 220 0 0 0"></polygon>
            </g>
        </g>
    </g>
</svg>