<?xml version="1.0" encoding="utf-8" ?>
<svg xmlns="http://www.w3.org/2000/svg" xmlns:xlink="http://www.w3.org/1999/xlink" width="90" height="90">
	<defs>
		<clipPath id="clip_0">
			<rect x="-283" y="-2173" width="1440" height="4234" clip-rule="evenodd"/>
		</clipPath>
	</defs>
	<g clip-path="url(#clip_0)">
		<path fill="rgb(231,236,237)" stroke="none" d="M45 90C69.8528 90 90 69.8528 90 45C90 20.1472 69.8528 0 45 0C20.1472 0 0 20.1472 0 45C0 69.8528 20.1472 90 45 90Z"/>
	</g>
	<defs>
		<clipPath id="clip_1">
			<rect x="-283" y="-2173" width="1440" height="4234" clip-rule="evenodd"/>
		</clipPath>
	</defs>
	<g clip-path="url(#clip_1)">
		<path fill="rgb(65,73,96)" stroke="none" d="M0 45C0 20.1476 20.1476 0 45 0C69.8524 0 90 20.1476 90 45C90 69.8524 69.8524 90 45 90C20.1476 90 0 69.8524 0 45ZM83.7931 45C83.7931 23.6095 66.3905 6.2069 45 6.2069C23.6095 6.2069 6.2069 23.6095 6.2069 45C6.2069 66.3905 23.6095 83.7931 45 83.7931C66.3905 83.7931 83.7931 66.3905 83.7931 45Z" fill-rule="evenodd"/>
	</g>
	<defs>
		<clipPath id="clip_2">
			<rect x="-283" y="-2173" width="1440" height="4234" clip-rule="evenodd"/>
		</clipPath>
	</defs>
	<g clip-path="url(#clip_2)">
		<path fill="rgb(115,131,191)" stroke="none" transform="translate(43.927 8.98438)" d="M1.5568 0C0.697447 0 0 0.691404 0 1.54676L0 3.09353C0 3.94889 0.697447 4.64029 1.5568 4.64029C2.41616 4.64029 3.1136 3.94889 3.1136 3.09353L3.1136 1.54676C3.1136 0.691404 2.41616 0 1.5568 0Z"/>
	</g>
	<defs>
		<clipPath id="clip_3">
			<rect x="-283" y="-2173" width="1440" height="4234" clip-rule="evenodd"/>
		</clipPath>
	</defs>
	<g clip-path="url(#clip_3)">
		<path fill="rgb(115,131,191)" stroke="none" transform="translate(43.927 75.4951)" d="M1.5568 0C0.697447 0 0 0.691404 0 1.54676L0 3.09353C0 3.94889 0.697447 4.64029 1.5568 4.64029C2.41616 4.64029 3.1136 3.94889 3.1136 3.09353L3.1136 1.54676C3.1136 0.691404 2.41616 0 1.5568 0Z"/>
	</g>
	<defs>
		<clipPath id="clip_4">
			<rect x="-283" y="-2173" width="1440" height="4234" clip-rule="evenodd"/>
		</clipPath>
	</defs>
	<g clip-path="url(#clip_4)">
		<path fill="rgb(115,131,191)" stroke="none" transform="translate(76.6199 43.0132)" d="M3.1136 0L1.5568 0C0.697447 0 0 0.691404 0 1.54676C0 2.40213 0.697447 3.09353 1.5568 3.09353L3.1136 3.09353C3.97296 3.09353 4.67041 2.40213 4.67041 1.54676C4.67041 0.691404 3.97296 0 3.1136 0Z"/>
	</g>
	<defs>
		<clipPath id="clip_5">
			<rect x="-283" y="-2173" width="1440" height="4234" clip-rule="evenodd"/>
		</clipPath>
	</defs>
	<g clip-path="url(#clip_5)">
		<path fill="rgb(115,131,191)" stroke="none" transform="translate(9.67737 43.0132)" d="M3.1136 0L1.5568 0C0.697447 0 0 0.691404 0 1.54676C0 2.40213 0.697447 3.09353 1.5568 3.09353L3.1136 3.09353C3.97296 3.09353 4.67041 2.40213 4.67041 1.54676C4.67041 0.691404 3.97296 0 3.1136 0Z"/>
	</g>
	<defs>
		<clipPath id="clip_6">
			<rect x="-283" y="-2173" width="1440" height="4234" clip-rule="evenodd"/>
		</clipPath>
	</defs>
	<g clip-path="url(#clip_6)">
		<path fill="rgb(115,131,191)" stroke="none" transform="translate(67.0436 18.9497)" d="M1.55719 0.453589L0.456532 1.54715C-0.152177 2.15194 -0.152177 3.12949 0.456532 3.73428C0.760109 4.0359 1.15865 4.18748 1.55719 4.18748C1.95573 4.18748 2.35427 4.0359 2.65785 3.73428L3.75851 2.64071C4.36722 2.03593 4.36722 1.05837 3.75851 0.453589C3.1498 -0.151196 2.1659 -0.151196 1.55719 0.453589Z"/>
	</g>
	<defs>
		<clipPath id="clip_7">
			<rect x="-283" y="-2173" width="1440" height="4234" clip-rule="evenodd"/>
		</clipPath>
	</defs>
	<g clip-path="url(#clip_7)">
		<path fill="rgb(115,131,191)" stroke="none" transform="translate(19.709 65.9812)" d="M1.55719 0.453009L0.456532 1.54657C-0.152177 2.15136 -0.152177 3.12891 0.456532 3.7337C0.760109 4.03532 1.15865 4.1869 1.55719 4.1869C1.95573 4.1869 2.35427 4.03532 2.65785 3.7337L3.75851 2.64013C4.36722 2.03535 4.36722 1.05779 3.75851 0.453009C3.1498 -0.151776 2.16434 -0.150229 1.55719 0.453009Z"/>
	</g>
	<defs>
		<clipPath id="clip_8">
			<rect x="-283" y="-2173" width="1440" height="4234" clip-rule="evenodd"/>
		</clipPath>
	</defs>
	<g clip-path="url(#clip_8)">
		<path fill="rgb(115,131,191)" stroke="none" transform="translate(67.0436 65.9807)" d="M2.65785 0.453589C2.04914 -0.151196 1.06524 -0.151196 0.456532 0.453589C-0.152177 1.05837 -0.152177 2.03593 0.456532 2.64071L1.55719 3.73428C1.86077 4.0359 2.25931 4.18748 2.65785 4.18748C3.05639 4.18748 3.45493 4.0359 3.75851 3.73428C4.36722 3.12949 4.36722 2.15194 3.75851 1.54715L2.65785 0.453589Z"/>
	</g>
	<defs>
		<clipPath id="clip_9">
			<rect x="-283" y="-2173" width="1440" height="4234" clip-rule="evenodd"/>
		</clipPath>
	</defs>
	<g clip-path="url(#clip_9)">
		<path fill="rgb(115,131,191)" stroke="none" transform="translate(19.709 18.9497)" d="M2.65785 0.453589C2.04914 -0.151196 1.06524 -0.151196 0.456532 0.453589C-0.152177 1.05837 -0.152177 2.03593 0.456532 2.64071L1.55719 3.73428C1.86077 4.0359 2.25931 4.18748 2.65785 4.18748C3.05639 4.18748 3.45493 4.0359 3.75851 3.73428C4.36722 3.12949 4.36722 2.15194 3.75851 1.54715L2.65785 0.453589Z"/>
	</g>
	<defs>
		<clipPath id="clip_10">
			<rect x="-283" y="-2173" width="1440" height="4234" clip-rule="evenodd"/>
		</clipPath>
	</defs>
	<g clip-path="url(#clip_10)">
		<path fill="none" stroke="rgb(65,73,96)" stroke-width="2" stroke-miterlimit="4" transform="translate(28.0646 44.5161)" d="M11.6129 0L0 0"/>
	</g>
	<defs>
		<clipPath id="clip_11">
			<rect x="-283" y="-2173" width="1440" height="4234" clip-rule="evenodd"/>
		</clipPath>
	</defs>
	<g clip-path="url(#clip_11)">
		<path fill="none" stroke="rgb(65,73,96)" stroke-width="2" stroke-miterlimit="4" transform="translate(45.4839 23.2258)" d="M0 17.4194L0 0"/>
	</g>
	<defs>
		<clipPath id="clip_12">
			<rect x="-283" y="-2173" width="1440" height="4234" clip-rule="evenodd"/>
		</clipPath>
	</defs>
	<g clip-path="url(#clip_12)">
		<path fill="none" stroke="rgb(65,73,96)" stroke-width="2" stroke-miterlimit="4" transform="translate(39.6774 39.6775)" d="M4.83871 9.67742C7.51106 9.67742 9.67742 7.51106 9.67742 4.83871C9.67742 2.16636 7.51106 0 4.83871 0C2.16636 0 0 2.16636 0 4.83871C0 7.51106 2.16636 9.67742 4.83871 9.67742Z"/>
	</g>
</svg>
